<svg width="62" height="62" viewBox="0 0 62 62" fill="none" xmlns="http://www.w3.org/2000/svg">
<rect x="0.400024" y="0.799988" width="61.2" height="61.2" rx="12" fill="#F4ECFF"/>
<g clip-path="url(#clip0_0_38)">
<path d="M14.8 23.3C14.8 22.2259 15.2267 21.1957 15.9863 20.4362C16.7458 19.6767 17.7759 19.25 18.85 19.25H43.15C44.2242 19.25 45.2543 19.6767 46.0138 20.4362C46.7733 21.1957 47.2 22.2259 47.2 23.3V25.325H14.8V23.3ZM14.8 29.375V39.5C14.8 40.5741 15.2267 41.6043 15.9863 42.3638C16.7458 43.1233 17.7759 43.55 18.85 43.55H43.15C44.2242 43.55 45.2543 43.1233 46.0138 42.3638C46.7733 41.6043 47.2 40.5741 47.2 39.5V29.375H14.8ZM20.875 33.425H22.9C23.4371 33.425 23.9522 33.6383 24.3319 34.0181C24.7117 34.3979 24.925 34.9129 24.925 35.45V37.475C24.925 38.0121 24.7117 38.5271 24.3319 38.9069C23.9522 39.2867 23.4371 39.5 22.9 39.5H20.875C20.338 39.5 19.8229 39.2867 19.4431 38.9069C19.0634 38.5271 18.85 38.0121 18.85 37.475V35.45C18.85 34.9129 19.0634 34.3979 19.4431 34.0181C19.8229 33.6383 20.338 33.425 20.875 33.425Z" fill="#9610FF"/>
</g>
<defs>
<clipPath id="clip0_0_38">
<rect width="32.4" height="32.4" fill="white" transform="translate(14.8 15.2)"/>
</clipPath>
</defs>
</svg>
