<svg width="62" height="62" viewBox="0 0 62 62" fill="none" xmlns="http://www.w3.org/2000/svg">
<rect width="61.2" height="61.2" rx="12" fill="#FFF7EB"/>
<path fill-rule="evenodd" clip-rule="evenodd" d="M41.625 23.2083C41.0614 23.2083 40.5209 23.4322 40.1224 23.8307C39.7239 24.2292 39.5 24.7697 39.5 25.3333V26.75H43.75V25.3333C43.75 24.7697 43.5261 24.2292 43.1276 23.8307C42.7291 23.4322 42.1886 23.2083 41.625 23.2083ZM43.75 28.1667H39.5V39.8542L41.625 43.0417L43.75 39.8542V28.1667ZM18.25 20.375V41.625C18.25 42.1886 18.4739 42.7291 18.8724 43.1276C19.2709 43.5261 19.8114 43.75 20.375 43.75H35.9583C36.5219 43.75 37.0624 43.5261 37.4609 43.1276C37.8594 42.7291 38.0833 42.1886 38.0833 41.625V20.375C38.0833 19.8114 37.8594 19.2709 37.4609 18.8724C37.0624 18.4739 36.5219 18.25 35.9583 18.25H20.375C19.8114 18.25 19.2709 18.4739 18.8724 18.8724C18.4739 19.2709 18.25 19.8114 18.25 20.375ZM28.1667 24.625C28.1667 24.4371 28.2413 24.257 28.3741 24.1241C28.507 23.9913 28.6871 23.9167 28.875 23.9167H34.5417C34.7295 23.9167 34.9097 23.9913 35.0425 24.1241C35.1754 24.257 35.25 24.4371 35.25 24.625C35.25 24.8129 35.1754 24.993 35.0425 25.1259C34.9097 25.2587 34.7295 25.3333 34.5417 25.3333H28.875C28.6871 25.3333 28.507 25.2587 28.3741 25.1259C28.2413 24.993 28.1667 24.8129 28.1667 24.625ZM28.875 26.75C28.6871 26.75 28.507 26.8246 28.3741 26.9575C28.2413 27.0903 28.1667 27.2705 28.1667 27.4583C28.1667 27.6462 28.2413 27.8264 28.3741 27.9592C28.507 28.092 28.6871 28.1667 28.875 28.1667H34.5417C34.7295 28.1667 34.9097 28.092 35.0425 27.9592C35.1754 27.8264 35.25 27.6462 35.25 27.4583C35.25 27.2705 35.1754 27.0903 35.0425 26.9575C34.9097 26.8246 34.7295 26.75 34.5417 26.75H28.875ZM28.1667 33.8333C28.1667 33.6455 28.2413 33.4653 28.3741 33.3325C28.507 33.1996 28.6871 33.125 28.875 33.125H34.5417C34.7295 33.125 34.9097 33.1996 35.0425 33.3325C35.1754 33.4653 35.25 33.6455 35.25 33.8333C35.25 34.0212 35.1754 34.2014 35.0425 34.3342C34.9097 34.467 34.7295 34.5417 34.5417 34.5417H28.875C28.6871 34.5417 28.507 34.467 28.3741 34.3342C28.2413 34.2014 28.1667 34.0212 28.1667 33.8333ZM28.875 35.9583C28.6871 35.9583 28.507 36.033 28.3741 36.1658C28.2413 36.2986 28.1667 36.4788 28.1667 36.6667C28.1667 36.8545 28.2413 37.0347 28.3741 37.1675C28.507 37.3004 28.6871 37.375 28.875 37.375H34.5417C34.7295 37.375 34.9097 37.3004 35.0425 37.1675C35.1754 37.0347 35.25 36.8545 35.25 36.6667C35.25 36.4788 35.1754 36.2986 35.0425 36.1658C34.9097 36.033 34.7295 35.9583 34.5417 35.9583H28.875ZM22.5 33.8333V35.9583H24.625V33.8333H22.5ZM21.7917 32.4167H25.3333C25.5212 32.4167 25.7014 32.4913 25.8342 32.6241C25.967 32.757 26.0417 32.9371 26.0417 33.125V36.6667C26.0417 36.8545 25.967 37.0347 25.8342 37.1675C25.7014 37.3004 25.5212 37.375 25.3333 37.375H21.7917C21.6038 37.375 21.4236 37.3004 21.2908 37.1675C21.158 37.0347 21.0833 36.8545 21.0833 36.6667V33.125C21.0833 32.9371 21.158 32.757 21.2908 32.6241C21.4236 32.4913 21.6038 32.4167 21.7917 32.4167ZM26.5425 25.1258C26.6715 24.9922 26.7429 24.8133 26.7413 24.6275C26.7397 24.4418 26.6652 24.2642 26.5338 24.1328C26.4025 24.0015 26.2248 23.927 26.0391 23.9254C25.8534 23.9238 25.6745 23.9952 25.5409 24.1242L23.2083 26.4567L22.2925 25.5409C22.1589 25.4118 21.9799 25.3404 21.7942 25.3421C21.6085 25.3437 21.4308 25.4182 21.2995 25.5495C21.1682 25.6808 21.0937 25.8585 21.0921 26.0442C21.0905 26.2299 21.1618 26.4089 21.2909 26.5425L23.2083 28.4599L26.5425 25.1258Z" fill="#FF981F"/>
</svg>
