<svg width="62" height="62" viewBox="0 0 62 62" fill="none" xmlns="http://www.w3.org/2000/svg">
<rect x="0.200012" y="0.799988" width="61.2" height="61.2" rx="12" fill="#EBFAFC"/>
<path d="M37.397 18.25C42.283 18.25 45.1667 21.0615 45.1667 25.8742H39.1726V25.9233C36.3907 25.9233 34.1356 28.122 34.1356 30.8343C34.1356 33.5465 36.3907 35.7452 39.1726 35.7452H45.1667V36.1872C45.1667 40.9385 42.283 43.75 37.397 43.75H24.603C19.717 43.75 16.8333 40.9385 16.8333 36.1872V25.8128C16.8333 21.0615 19.717 18.25 24.603 18.25H37.397ZM44.1089 27.9859C44.6931 27.9859 45.1667 28.4476 45.1667 29.0172V32.6022C45.1599 33.169 44.6902 33.6269 44.1089 33.6335H39.2859C37.8776 33.652 36.6461 32.7119 36.3267 31.3745C36.1667 30.5442 36.3913 29.6876 36.9402 29.034C37.4891 28.3804 38.3062 27.9968 39.1726 27.9859H44.1089ZM39.8526 29.6434H39.3867C39.1006 29.6401 38.8251 29.7486 38.6216 29.9446C38.4182 30.1407 38.3037 30.408 38.3037 30.6869C38.3037 31.2721 38.7865 31.7483 39.3867 31.7551H39.8526C40.4507 31.7551 40.9356 31.2823 40.9356 30.6992C40.9356 30.1161 40.4507 29.6434 39.8526 29.6434ZM31.5415 23.7625H23.5452C22.952 23.7625 22.4691 24.2278 22.4622 24.8061C22.4622 25.3912 22.945 25.8675 23.5452 25.8742H31.5415C32.1396 25.8742 32.6244 25.4015 32.6244 24.8184C32.6244 24.2352 32.1396 23.7625 31.5415 23.7625Z" fill="#00BCD3"/>
</svg>
