<svg width="62" height="62" viewBox="0 0 62 62" fill="none" xmlns="http://www.w3.org/2000/svg">
<rect width="61.2" height="61.2" rx="12" fill="#D8FFDC"/>
<path d="M28.77 16.62C26.9336 16.6193 25.1289 17.0989 23.5351 18.0111C21.9413 18.9234 20.6137 20.2366 19.6843 21.8204C18.7548 23.4043 18.2557 25.2037 18.2365 27.04C18.2173 28.8763 18.6787 30.6857 19.5749 32.2886L18.287 35.6615C18.1798 35.9419 18.1526 36.2465 18.2084 36.5414C18.2643 36.8363 18.401 37.11 18.6032 37.3317C18.8055 37.5535 19.0655 37.7147 19.354 37.7974C19.6426 37.88 19.9484 37.8809 20.2375 37.7999L24.2664 36.6707C25.6935 37.3451 27.254 37.6899 28.8324 37.6798C30.4108 37.6697 31.9667 37.3048 33.3851 36.6123C34.8035 35.9197 36.048 34.9171 37.0266 33.6787C38.0053 32.4403 38.693 30.9977 39.0389 29.4576C39.3848 27.9176 39.3801 26.3195 39.0251 24.7815C38.67 23.2435 37.9738 21.805 36.9878 20.5724C36.0018 19.3398 34.7514 18.3447 33.3289 17.6605C31.9065 16.9764 30.3484 16.6208 28.77 16.62ZM28.757 22.9396C28.1771 23.053 27.542 23.4289 27.0431 24.3101C26.9905 24.4027 26.9203 24.484 26.8363 24.5494C26.7523 24.6147 26.6563 24.663 26.5537 24.6912C26.4511 24.7195 26.344 24.7273 26.2384 24.7142C26.1328 24.701 26.0308 24.6672 25.9382 24.6147C25.8457 24.5621 25.7644 24.4919 25.699 24.4079C25.6336 24.324 25.5854 24.2279 25.5571 24.1254C25.5289 24.0228 25.5211 23.9156 25.5342 23.81C25.5473 23.7044 25.5811 23.6024 25.6337 23.5099C26.3481 22.2527 27.3638 21.561 28.446 21.3504C29.4529 21.1601 30.4944 21.3699 31.349 21.9352C32.1331 22.4536 32.7665 23.3009 32.786 24.3166C32.807 25.3777 32.1623 26.3351 30.9732 27.0382C30.1664 27.5145 29.8522 27.8385 29.7177 28.054C29.6043 28.2354 29.58 28.4006 29.58 28.77C29.58 28.9848 29.4947 29.1908 29.3427 29.3428C29.1908 29.4947 28.9848 29.58 28.77 29.58C28.5552 29.58 28.3491 29.4947 28.1972 29.3428C28.0453 29.1908 27.96 28.9848 27.96 28.77C27.96 28.3294 27.9827 27.7818 28.3439 27.1986C28.6841 26.6527 29.2657 26.1667 30.1502 25.6434C31.0169 25.1299 31.1741 24.6422 31.1692 24.3506C31.1627 24.0153 30.9392 23.6054 30.4564 23.2863C29.9566 22.9556 29.3481 22.8314 28.7587 22.9396H28.757ZM29.1734 33.63C28.8511 33.63 28.5421 33.502 28.3142 33.2741C28.0864 33.0463 27.9584 32.7372 27.9584 32.415C27.9584 32.0928 28.0864 31.7837 28.3142 31.5559C28.5421 31.328 28.8511 31.2 29.1734 31.2C29.4956 31.2 29.8047 31.328 30.0325 31.5559C30.2604 31.7837 30.3884 32.0928 30.3884 32.415C30.3884 32.7372 30.2604 33.0463 30.0325 33.2741C29.8047 33.502 29.4956 33.63 29.1734 33.63ZM25.5867 38.8788C26.5742 40.0287 27.7989 40.9514 29.1767 41.5833C30.5544 42.2153 32.0526 42.5417 33.5684 42.54C35.1771 42.54 36.7048 42.1787 38.072 41.5307L42.0994 42.6599C42.3884 42.7409 42.6942 42.74 42.9828 42.6574C43.2714 42.5747 43.5313 42.4135 43.7336 42.1917C43.9358 41.97 44.0725 41.6964 44.1284 41.4014C44.1842 41.1065 44.157 40.8018 44.0498 40.5215L42.7619 37.1486C43.6403 35.5786 44.1006 33.8091 44.0984 32.01C44.0984 28.8672 42.7214 26.0452 40.5361 24.1157C40.7757 25.0488 40.9035 26.007 40.9168 26.9702C41.9017 28.4039 42.4784 30.1405 42.4784 32.01C42.4784 33.711 42.0022 35.3002 41.1743 36.6529L40.967 36.9931L42.5384 41.0998L37.9052 39.8038L37.6217 39.9464C36.4067 40.5685 35.0297 40.92 33.5684 40.92C31.7312 40.9228 29.9385 40.355 28.4379 39.2951C27.4743 39.27 26.5172 39.1302 25.5867 38.8788Z" fill="#0FA958"/>
</svg>
