<svg width="62" height="62" viewBox="0 0 62 62" fill="none" xmlns="http://www.w3.org/2000/svg">
<rect x="0.200012" width="61.2" height="61.2" rx="12" fill="#EFF3FF"/>
<path d="M36.1703 16.8333C36.7718 16.8319 37.2474 17.2992 37.2488 17.9222L37.2502 18.9842C41.1526 19.29 43.7304 21.9492 43.7346 26.0271L43.75 37.9637C43.7556 42.4098 40.9623 45.1454 36.4851 45.1525L25.5485 45.1667C21.0992 45.1723 18.271 42.3715 18.2654 37.9127L18.25 26.1163C18.2444 22.0115 20.7313 19.3594 24.6338 19.0012L24.6324 17.9392C24.631 17.3162 25.0925 16.8475 25.708 16.8475C26.3234 16.8461 26.785 17.3133 26.7864 17.9364L26.7878 18.9275L35.0961 18.9162L35.0947 17.925C35.0933 17.302 35.5549 16.8347 36.1703 16.8333ZM36.741 36.9385H36.727C36.0836 36.9541 35.5675 37.4936 35.5815 38.1449C35.5829 38.7962 36.1018 39.3329 36.7452 39.3471C37.4012 39.3456 37.9327 38.8062 37.9313 38.1407C37.9313 37.4752 37.3984 36.9385 36.741 36.9385ZM25.2156 36.9399C24.5722 36.9682 24.0687 37.5077 24.0701 38.1591C24.0994 38.8104 24.631 39.3202 25.2744 39.2904C25.9052 39.2621 26.4073 38.7226 26.3779 38.0713C26.364 37.4341 25.845 36.9385 25.2156 36.9399ZM30.9783 36.9328C30.3349 36.9626 29.8328 37.5006 29.8328 38.152C29.8621 38.8033 30.3937 39.3117 31.0371 39.2833C31.6665 39.2536 32.17 38.7155 32.1407 38.0628C32.1267 37.427 31.6077 36.9314 30.9783 36.9328ZM25.2086 31.8425C24.5652 31.8708 24.0631 32.4103 24.0645 33.0616C24.0924 33.713 24.6254 34.2227 25.2688 34.193C25.8982 34.1646 26.4003 33.6252 26.371 32.9738C26.357 32.3366 25.8394 31.8411 25.2086 31.8425ZM30.9727 31.7929C30.3293 31.8212 29.8258 32.3607 29.8272 33.0121C29.8552 33.6634 30.3881 34.1717 31.0315 34.1434C31.6609 34.1137 32.163 33.5756 32.1351 32.9243C32.1197 32.2871 31.6021 31.7915 30.9727 31.7929ZM36.7354 31.8C36.092 31.8142 35.5885 32.3381 35.5899 32.9894V33.005C35.6039 33.6563 36.1354 34.1505 36.7802 34.1363C37.4096 34.1208 37.9117 33.5813 37.8978 32.9299C37.8684 32.3069 37.3635 31.7986 36.7354 31.8ZM35.0989 21.0968L26.7906 21.1081L26.792 22.2536C26.792 22.8639 26.3318 23.3453 25.7164 23.3453C25.1009 23.3467 24.6379 22.8667 24.6379 22.2564L24.6365 21.1662C21.9091 21.4394 20.3998 23.0423 20.404 26.1135L20.4054 26.5539L41.582 26.5256V26.03C41.5218 22.9857 39.9944 21.3885 37.253 21.1506L37.2544 22.2409C37.2544 22.8497 36.7802 23.3326 36.1787 23.3326C35.5633 23.334 35.1003 22.8526 35.1003 22.2437L35.0989 21.0968Z" fill="#1A96F0"/>
</svg>
